<svg xmlns="http://www.w3.org/2000/svg" height="128" viewBox="0 0 128 128" width="128"><path d="M64.3 84.3c-15.5 0-28.2-12.6-28.2-28.2V42.2c0-15.5 12.6-28.2 28.2-28.2 15.5 0 28.2 12.6 28.2 28.2v13.9C92.5 71.6 79.8 84.3 64.3 84.3zM64.3 18c-13.3 0-24.2 10.9-24.2 24.2v13.9c0 13.3 10.8 24.2 24.2 24.2 13.3 0 24.2-10.8 24.2-24.2V42.2C88.5 28.9 77.6 18 64.3 18z"/><path d="M102.3 114h-76.5c-6.5 0-11.8-5.3-11.8-11.8v-8.7c0-3.9 2-9 11.3-11.7l11.4-3.2c1.1-0.3 2.2 0.3 2.5 1.4s-0.3 2.2-1.4 2.5l-11.4 3.2c-8.4 2.4-8.4 6.5-8.4 7.9v8.7c0 4.3 3.5 7.8 7.8 7.8h76.5c4.3 0 7.8-3.5 7.8-7.8v-8.7c0-3.6-2.8-6.3-8.4-7.9l-10.9-3c-1.1-0.3-1.7-1.4-1.4-2.5 0.3-1.1 1.4-1.7 2.5-1.4l10.9 3c9.3 2.7 11.3 7.9 11.3 11.7v8.7C114.2 108.7 108.9 114 102.3 114z"/></svg>