<?xml version="1.0" encoding="UTF-8"?><!DOCTYPE svg PUBLIC "-//W3C//DTD SVG 1.1//EN" "http://www.w3.org/Graphics/SVG/1.1/DTD/svg11.dtd"><svg xmlns="http://www.w3.org/2000/svg" xmlns:xlink="http://www.w3.org/1999/xlink"><symbol id="icon-mail" viewBox="0 0 40 40"><g><path d="M34.7,36.5H5.4c-2.9,0-5.3-2.4-5.3-5.3V9.8c0-2.9,2.4-5.3,5.3-5.3h29.3c2.9,0,5.3,2.4,5.3,5.3v21.3   C40,34.1,37.6,36.5,34.7,36.5z M5.4,6.5C3.5,6.5,2,8,2,9.8v21.3c0,1.8,1.5,3.3,3.3,3.3h29.3c1.8,0,3.3-1.5,3.3-3.3V9.8   c0-1.8-1.5-3.3-3.3-3.3H5.4z" fill="#2b4a79"/></g><g><path d="M20,23.9c-1.7,0-3.3-0.8-4.5-2.1L6,10.4C5.6,10,5.7,9.4,6.1,9c0.4-0.4,1.1-0.3,1.4,0.1l9.6,11.5   c0.7,0.9,1.8,1.4,2.9,1.4c1.1,0,2.2-0.5,2.9-1.4l9.5-11.4c0.4-0.4,1-0.5,1.4-0.1c0.4,0.4,0.5,1,0.1,1.4l-9.5,11.4   C23.4,23.2,21.8,23.9,20,23.9z" fill="#2b4a79"/></g><g><path d="M35.5,31.8c-0.3,0-0.6-0.1-0.8-0.4l-6.9-8.2c-0.4-0.4-0.3-1.1,0.1-1.4c0.4-0.4,1.1-0.3,1.4,0.1l6.9,8.2   c0.4,0.4,0.3,1.1-0.1,1.4C36,31.7,35.7,31.8,35.5,31.8z" fill="#2b4a79"/></g><g><path d="M4.5,31.7c-0.2,0-0.5-0.1-0.6-0.2c-0.4-0.4-0.5-1-0.1-1.4l6.8-8.1c0.4-0.4,1-0.5,1.4-0.1   c0.4,0.4,0.5,1,0.1,1.4l-6.8,8.1C5.1,31.6,4.8,31.7,4.5,31.7z" fill="#2b4a79"/></g></symbol><symbol id="icon-password" viewBox="0 0 512 512"><g>
<path d="M478.8,512H33.2c-5.8,0-10.5-4.7-10.5-10.5V209.1c0-5.8,4.7-10.5,10.5-10.5h445.6c5.8,0,10.5,4.7,10.5,10.5   v292.4C489.3,507.3,484.6,512,478.8,512z M43.8,490.9h424.5V219.6H43.8V490.9z" fill="#2b4a79"/>
<path d="M443.6,208.7c-5.8,0-10.5-4.7-10.5-10.5c0-97.6-79.4-177.1-177.1-177.1S78.9,100.5,78.9,198.2   c0,5.8-4.7,10.5-10.5,10.5s-10.5-4.7-10.5-10.5C57.8,88.9,146.7,0,256,0s198.2,88.9,198.2,198.2C454.2,204,449.4,208.7,443.6,208.7   z" fill="#2b4a79"/>
<path d="M256,437c-5.8,0-10.5-4.7-10.5-10.5v-61.8c0-5.8,4.7-10.5,10.5-10.5c5.8,0,10.5,4.7,10.5,10.5v61.8   C266.5,432.2,261.8,437,256,437z" fill="#2b4a79"/>
<path d="M256,369.7c-26.5,0-48.1-21.6-48.1-48.1c0-26.5,21.6-48.1,48.1-48.1s48.1,21.6,48.1,48.1   C304.1,348.2,282.5,369.7,256,369.7z M256,294.7c-14.9,0-27,12.1-27,27s12.1,27,27,27s27-12.1,27-27S270.9,294.7,256,294.7z" fill="#2b4a79"/></g></symbol><symbol id="icon-user" viewBox="0 0 128 128"><path d="M64.3 84.3c-15.5 0-28.2-12.6-28.2-28.2V42.2c0-15.5 12.6-28.2 28.2-28.2 15.5 0 28.2 12.6 28.2 28.2v13.9C92.5 71.6 79.8 84.3 64.3 84.3zM64.3 18c-13.3 0-24.2 10.9-24.2 24.2v13.9c0 13.3 10.8 24.2 24.2 24.2 13.3 0 24.2-10.8 24.2-24.2V42.2C88.5 28.9 77.6 18 64.3 18z"/><path d="M102.3 114h-76.5c-6.5 0-11.8-5.3-11.8-11.8v-8.7c0-3.9 2-9 11.3-11.7l11.4-3.2c1.1-0.3 2.2 0.3 2.5 1.4s-0.3 2.2-1.4 2.5l-11.4 3.2c-8.4 2.4-8.4 6.5-8.4 7.9v8.7c0 4.3 3.5 7.8 7.8 7.8h76.5c4.3 0 7.8-3.5 7.8-7.8v-8.7c0-3.6-2.8-6.3-8.4-7.9l-10.9-3c-1.1-0.3-1.7-1.4-1.4-2.5 0.3-1.1 1.4-1.7 2.5-1.4l10.9 3c9.3 2.7 11.3 7.9 11.3 11.7v8.7C114.2 108.7 108.9 114 102.3 114z"/></symbol></svg>